<?xml version="1.0" standalone="no"?>
<!DOCTYPE svg PUBLIC "-//W3C//DTD SVG 20010904//EN"
 "http://www.w3.org/TR/2001/REC-SVG-20010904/DTD/svg10.dtd">
<svg version="1.0" xmlns="http://www.w3.org/2000/svg"
 width="512.000000pt" height="512.000000pt" viewBox="0 0 512.000000 512.000000"
 preserveAspectRatio="xMidYMid meet">
<metadata>
Created by potrace 1.14, written by Peter Selinger 2001-2017
</metadata>
<g transform="translate(0.000000,512.000000) scale(0.100000,-0.100000)"
fill="#000000" stroke="none">
<path d="M0 2560 l0 -2560 2560 0 2560 0 0 2560 0 2560 -2560 0 -2560 0 0
-2560z m846 423 c-3 -10 -23 -89 -46 -176 -23 -87 -44 -165 -47 -173 -4 -12
25 -14 203 -12 l209 3 50 187 50 188 203 0 c111 0 202 -3 202 -6 0 -6 -67
-260 -173 -659 l-54 -200 -202 -3 -203 -2 7 37 c3 21 24 102 46 180 21 79 39
147 39 153 0 6 -75 10 -205 10 -113 0 -205 -2 -205 -5 0 -3 -18 -69 -39 -148
-22 -78 -44 -161 -51 -184 l-11 -43 -204 0 -203 0 34 133 c19 72 57 213 83
312 27 99 63 235 81 303 l33 122 204 0 c190 0 204 -1 199 -17z m1414 7 c0 -5
-18 -76 -40 -157 -106 -393 -130 -486 -130 -509 0 -38 28 -73 69 -84 20 -5
155 -10 309 -10 149 0 272 -3 272 -6 0 -3 -5 -25 -11 -50 l-11 -44 -446 0
c-425 0 -448 1 -487 20 -57 28 -92 67 -103 117 -10 45 -6 64 124 551 l48 182
203 0 c126 0 203 -4 203 -10z m2546 -9 c48 -22 102 -83 110 -126 5 -31 -9 -93
-126 -527 l-54 -198 -203 0 c-141 0 -203 3 -203 11 0 6 27 111 60 232 131 481
126 452 79 491 -27 23 -39 26 -107 26 -79 0 -141 -21 -176 -59 -14 -16 -72
-213 -172 -593 l-28 -108 -203 0 c-130 0 -203 4 -203 10 0 12 38 157 114 439
31 113 56 215 56 229 0 13 -13 37 -30 54 -30 30 -31 30 -124 26 -88 -3 -97 -5
-133 -34 -21 -17 -43 -42 -50 -55 -7 -13 -33 -105 -59 -204 -49 -189 -85 -324
-110 -412 l-15 -53 -205 0 c-191 0 -205 1 -200 18 17 58 160 594 171 637 12
54 82 132 150 167 89 47 79 47 870 47 709 1 752 0 791 -18z"/>
</g>
</svg>
